<svg width="200" height="196" xmlns="http://www.w3.org/2000/svg"><path d="M99.994 0C44.775 0 0 44.769 0 100.006c0 44.175 28.65 81.656 68.394 94.881 5 .92 6.825-2.168 6.825-4.818 0-2.375-.088-8.663-.138-17.006-27.819 6.043-33.687-13.407-33.687-13.407-4.544-11.55-11.1-14.625-11.1-14.625-9.082-6.206.687-6.081.687-6.081 10.032.706 15.313 10.306 15.313 10.306 8.925 15.281 23.406 10.869 29.106 8.306.906-6.462 3.494-10.868 6.35-13.368-22.206-2.525-45.55-11.1-45.55-49.419 0-10.919 3.894-19.844 10.294-26.838-1.032-2.53-4.463-12.693.975-26.462 0 0 8.4-2.688 27.5 10.25 7.981-2.219 16.531-3.325 25.037-3.369 8.494.044 17.05 1.15 25.038 3.369 19.087-12.938 27.468-10.25 27.468-10.25 5.457 13.769 2.025 23.931.994 26.462 6.413 6.994 10.281 15.92 10.281 26.838 0 38.412-23.38 46.869-45.656 49.344 3.588 3.087 6.788 9.187 6.788 18.518 0 13.37-.125 24.15-.125 27.432 0 2.675 1.8 5.787 6.875 4.806C171.375 181.625 200 144.169 200 100.006 200 44.77 155.225 0 99.994 0" fill-rule="nonzero" fill="#000"/></svg>